<svg width="13" height="11" viewBox="0 0 13 11" fill="none" xmlns="http://www.w3.org/2000/svg">
<path fill-rule="evenodd" clip-rule="evenodd" d="M11.5 0.25H1.5C0.8125 0.25 0.25 0.8125 0.25 1.5V9.73223C0.25 10.8459 1.59643 11.4036 2.38388 10.6161C2.6183 10.3817 2.93625 10.25 3.26777 10.25H11.5C12.1875 10.25 12.75 9.6875 12.75 9V1.5C12.75 0.8125 12.1875 0.25 11.5 0.25ZM11.5 5.25C11.5 7.32107 9.82107 9 7.75 9H2.3827C2.28573 9 2.19273 9.03852 2.12416 9.10709C1.89383 9.33742 1.5 9.17429 1.5 8.84855V3.91088C1.5 2.57939 2.57939 1.5 3.91088 1.5H7.75C9.82107 1.5 11.5 3.17893 11.5 5.25ZM4.625 5.25C4.625 4.90482 4.34518 4.625 4 4.625C3.65482 4.625 3.375 4.90482 3.375 5.25C3.375 5.59518 3.65482 5.875 4 5.875C4.34518 5.875 4.625 5.59518 4.625 5.25ZM8.375 5.25C8.375 4.90482 8.65482 4.625 9 4.625C9.34518 4.625 9.625 4.90482 9.625 5.25C9.625 5.59518 9.34518 5.875 9 5.875C8.65482 5.875 8.375 5.59518 8.375 5.25ZM7.125 5.25C7.125 4.90482 6.84518 4.625 6.5 4.625C6.15482 4.625 5.875 4.90482 5.875 5.25C5.875 5.59518 6.15482 5.875 6.5 5.875C6.84518 5.875 7.125 5.59518 7.125 5.25Z" fill="black" fill-opacity="0.54"/>
</svg>
