<svg width="15" height="15" viewBox="0 0 15 15" fill="none" xmlns="http://www.w3.org/2000/svg">
<path fill-rule="evenodd" clip-rule="evenodd" d="M4.6875 1.76562C6.36456 1.76562 8.63544 1.76562 10.3125 1.76562C12.2375 1.76562 13.75 3.27813 13.75 5.20313C13.75 7.56369 11.6285 9.48747 8.41417 12.4022L8.40625 12.4094C7.89382 12.8759 7.10794 12.8802 6.59375 12.4156L6.56908 12.3932C3.36415 9.48078 1.25 7.55958 1.25 5.20313C1.25 3.27813 2.7625 1.76562 4.6875 1.76562ZM7.4375 11.4844C7.47202 11.5189 7.52798 11.5189 7.5625 11.4844C10.5375 8.79062 12.5 7.00937 12.5 5.20312C12.5 3.95312 11.5625 3.01563 10.3125 3.01563C9.55466 3.01563 8.81233 3.39921 8.37225 3.98029C8.15915 4.26167 7.8541 4.49062 7.50113 4.49062C7.15014 4.49062 6.84628 4.26431 6.63413 3.98468C6.19141 3.40114 5.44724 3.01563 4.6875 3.01563C3.4375 3.01563 2.5 3.95312 2.5 5.20312C2.5 7.00937 4.4625 8.79062 7.4375 11.4844Z" fill="black" fill-opacity="0.54"/>
</svg>
