<svg width="11" height="11" viewBox="0 0 11 11" fill="none" xmlns="http://www.w3.org/2000/svg">
<path fill-rule="evenodd" clip-rule="evenodd" d="M8.625 2.92418C8.625 2.62088 8.37913 2.375 8.07583 2.375H3.625C2.93464 2.375 2.375 2.93465 2.375 3.625V4.25C2.375 4.59518 2.09518 4.875 1.75 4.875C1.40482 4.875 1.125 4.59518 1.125 4.25V3C1.125 1.96447 1.96447 1.125 3 1.125H8.07583C8.37913 1.125 8.625 0.879128 8.625 0.575827C8.625 0.0865649 9.21654 -0.15846 9.5625 0.187501L10.3928 1.01777C10.7972 1.42217 10.7972 2.07783 10.3928 2.48223L9.5625 3.3125C9.21654 3.65846 8.625 3.41344 8.625 2.92418ZM2.375 8.07583C2.375 8.37913 2.62087 8.625 2.92418 8.625H7.375C8.06536 8.625 8.625 8.06536 8.625 7.375V6.75C8.625 6.40482 8.90482 6.125 9.25 6.125C9.59518 6.125 9.875 6.40482 9.875 6.75V8C9.875 9.03554 9.03553 9.875 8 9.875H2.92418C2.62087 9.875 2.375 10.1209 2.375 10.4242C2.375 10.9134 1.78346 11.1585 1.4375 10.8125L0.607234 9.98224C0.202832 9.57783 0.202831 8.92217 0.607233 8.51777L1.4375 7.6875C1.78346 7.34154 2.375 7.58657 2.375 8.07583Z" fill="black" fill-opacity="0.54"/>
</svg>
