<svg width="30" height="30" viewBox="0 0 30 30" fill="none" xmlns="http://www.w3.org/2000/svg">
<path fill-rule="evenodd" clip-rule="evenodd" d="M28.5 0H1.5C0.666667 0 0 0.666667 0 1.5V28.5C0 29.1667 0.666667 30 1.5 30H28.5C29.1667 30 30 29.1667 30 28.5V1.5C30 0.666667 29.1667 0 28.5 0ZM10 6.66667H6.66666V10H10V6.66667ZM23.3333 6.66667H13.3333V10H23.3333V6.66667ZM23.3333 13.3333H13.3333V16.6667H23.3333V13.3333ZM13.3333 20H23.3333V23.3333H13.3333V20ZM6.66666 13.3333H10V16.6667H6.66666V13.3333ZM10 20H6.66666V23.3333H10V20ZM3.33333 26.6667H26.6667V3.33333H3.33333V26.6667Z" fill="white"/>
</svg>
