<svg width="22" height="22" viewBox="0 0 22 22" fill="none" xmlns="http://www.w3.org/2000/svg">
<path fill-rule="evenodd" clip-rule="evenodd" d="M14.6015 13.7177C14.6687 13.7825 14.7584 13.8188 14.8518 13.8188H15.1933C15.5137 13.8188 15.821 13.9462 16.0473 14.173L21.0009 19.1366C21.5149 19.6516 21.5145 20.4855 21 21C20.4855 21.5145 19.6516 21.5149 19.1366 21.0009L14.173 16.0473C13.9462 15.821 13.8188 15.5137 13.8188 15.1932V14.8518C13.8188 14.7584 13.7825 14.6687 13.7177 14.6015C13.585 14.4638 13.3684 14.4544 13.2184 14.5729C11.8321 15.6677 10.0847 16.3188 8.19376 16.3188C3.70626 16.3188 0.0687561 12.6813 0.0687561 8.19375C0.0687561 3.70626 3.70626 0.0687561 8.19376 0.0687561C12.6813 0.0687561 16.3188 3.70626 16.3188 8.19375C16.3188 10.0847 15.6677 11.8321 14.5729 13.2184C14.4544 13.3684 14.4638 13.585 14.6015 13.7177ZM2.56876 8.19376C2.56876 11.3063 5.08126 13.8188 8.19376 13.8188C11.3063 13.8188 13.8188 11.3063 13.8188 8.19376C13.8188 5.08126 11.3063 2.56876 8.19376 2.56876C5.08126 2.56876 2.56876 5.08126 2.56876 8.19376Z" fill="#978D8D"/>
</svg>
