<svg width="40" height="40" viewBox="0 0 40 40" fill="none" xmlns="http://www.w3.org/2000/svg">
<g id="icon/action/settings_power_24px">
<path id="icon/action/settings_power_24px_2" fill-rule="evenodd" clip-rule="evenodd" d="M18.3334 3.33336C18.3334 2.41288 19.0796 1.66669 20 1.66669V1.66669C20.9205 1.66669 21.6667 2.41288 21.6667 3.33335V16.6667C21.6667 17.5872 20.9205 18.3334 20 18.3334V18.3334C19.0796 18.3334 18.3334 17.5872 18.3334 16.6667V3.33336ZM11.6667 36.6667C11.6667 37.5872 12.4129 38.3334 13.3334 38.3334V38.3334C14.2538 38.3334 15 37.5872 15 36.6667V36.6667C15 35.7462 14.2538 35 13.3334 35V35C12.4129 35 11.6667 35.7462 11.6667 36.6667V36.6667ZM18.3334 36.6667C18.3334 37.5872 19.0796 38.3334 20 38.3334V38.3334C20.9205 38.3334 21.6667 37.5872 21.6667 36.6667V36.6667C21.6667 35.7462 20.9205 35 20 35V35C19.0796 35 18.3334 35.7462 18.3334 36.6667V36.6667ZM28.6714 6.55831C28.0757 6.04962 27.1974 6.13595 26.6435 6.68983V6.68983C25.9003 7.43302 26.0583 8.67749 26.8274 9.39382C28.7777 11.2103 30 13.7909 30 16.6667C30 22.1833 25.5167 26.6667 20 26.6667C14.4834 26.6667 10 22.1833 10 16.6667C10 13.7844 11.2279 11.1985 13.1776 9.37294C13.9394 8.6596 14.0919 7.42524 13.3539 6.68725V6.68725C12.8015 6.13486 11.9256 6.04879 11.3314 6.55594C8.47496 8.99401 6.66669 12.6176 6.66669 16.6667C6.66669 24.0333 12.6334 30 20 30C27.3667 30 33.3334 24.0333 33.3334 16.6667C33.3334 12.6189 31.5263 8.99636 28.6714 6.55831ZM28.3333 36.6667C28.3333 37.5872 27.5871 38.3334 26.6667 38.3334V38.3334C25.7462 38.3334 25 37.5872 25 36.6667V36.6667C25 35.7462 25.7462 35 26.6667 35V35C27.5871 35 28.3333 35.7462 28.3333 36.6667V36.6667Z" fill="white"/>
</g>
</svg>
